<?xml version="1.0" encoding="UTF-8" standalone="no"?>
<!DOCTYPE svg PUBLIC "-//W3C//DTD SVG 1.1//EN" "http://www.w3.org/Graphics/SVG/1.1/DTD/svg11.dtd">
<svg version="1.1" xmlns="http://www.w3.org/2000/svg" xmlns:xlink="http://www.w3.org/1999/xlink" preserveAspectRatio="xMidYMid meet" viewBox="0 0 640 640" width="40" height="40"><defs><path d="M102 459C102 487.05 124.95 510 153 510C181.05 510 204 487.05 204 459C204 430.95 181.05 408 153 408C124.95 408 102 430.95 102 459ZM0 51L51 51L142.8 244.8C121.38 281.52 109.48 301.92 107.1 306C104.55 313.65 102 323.85 102 331.5C102 359.55 124.95 382.5 153 382.5C173.4 382.5 275.4 382.5 459 382.5L459 331.5C281.52 331.5 182.92 331.5 163.2 331.5C160.65 331.5 158.1 328.95 158.1 326.4C158.1 326.23 158.1 325.38 158.1 323.85L181.05 280.5C294.27 280.5 357.17 280.5 369.75 280.5C390.15 280.5 405.45 270.3 413.1 255C422.28 238.42 495.72 105.82 504.9 89.25C510 84.15 510 81.6 510 76.5C510 61.2 499.8 51 484.5 51C459.34 51 333.54 51 107.1 51L84.15 0L0 0L0 51ZM357 459C357 487.05 379.95 510 408 510C436.05 510 459 487.05 459 459C459 430.95 436.05 408 408 408C379.95 408 357 430.95 357 459Z" id="b59eF838j"></path></defs><g><g><g><use xlink:href="#b59eF838j" opacity="1" fill="#ffffff" fill-opacity="1"></use><g><use xlink:href="#b59eF838j" opacity="1" fill-opacity="0" stroke="#000000" stroke-width="1" stroke-opacity="0"></use></g></g></g></g></svg>