<svg id="regular" enable-background="new 0 0 24 24" height="512" viewBox="0 0 24 24" width="512" xmlns="http://www.w3.org/2000/svg"><path d="m4.75 24h14.5c2.619 0 4.75-2.131 4.75-4.75v-14.5c0-2.619-2.131-4.75-4.75-4.75h-14.5c-2.619 0-4.75 2.131-4.75 4.75v14.5c0 2.619 2.131 4.75 4.75 4.75zm-3.25-19.25c0-1.792 1.458-3.25 3.25-3.25h14.5c1.792 0 3.25 1.458 3.25 3.25v14.5c0 1.792-1.458 3.25-3.25 3.25h-14.5c-1.792 0-3.25-1.458-3.25-3.25z"/><path d="m12 18.13c3.38 0 6.13-2.75 6.13-6.13s-2.75-6.13-6.13-6.13-6.13 2.75-6.13 6.13 2.75 6.13 6.13 6.13zm0-10.76c2.553 0 4.63 2.077 4.63 4.63s-2.077 4.63-4.63 4.63-4.63-2.077-4.63-4.63 2.077-4.63 4.63-4.63z"/><path d="m18.358 7.362c.986 0 1.729-.74 1.729-1.721 0-1.023-.782-1.721-1.728-1.721-.986 0-1.729.74-1.729 1.721 0 1.021.778 1.721 1.728 1.721zm.177-1.886c.316.279-.405.618-.405.166 0-.27.367-.2.405-.166z"/></svg>